<svg xmlns="http://www.w3.org/2000/svg" xmlns:xlink="http://www.w3.org/1999/xlink" width="64.965" height="74.941" viewBox="0 0 64.965 74.941"><defs><filter id="a" x="1.337" y="0" width="62.198" height="74.941" filterUnits="userSpaceOnUse"><feOffset dy="3" input="SourceAlpha"/><feGaussianBlur stdDeviation="3" result="b"/><feFlood flood-color="#989898" flood-opacity="0"/><feComposite operator="in" in2="b"/><feComposite in="SourceGraphic"/></filter></defs><g transform="translate(-295 -3)"><g transform="translate(6 2)"><g transform="translate(289 7)"><g transform="matrix(1, 0, 0, 1, 0, -6)" filter="url(#a)"><path d="M28.9,10.677A5.223,5.223,0,0,0,34,5.338a5.105,5.105,0,1,0-10.2,0A5.223,5.223,0,0,0,28.9,10.677ZM12.079,35.308l-1.572,3.839H3.4a3.563,3.563,0,0,0,0,7.118h8.229a5.089,5.089,0,0,0,4.687-3.235l.934-2.282-1.134-.7A10.447,10.447,0,0,1,12.079,35.308ZM40.8,24.911H36.121l-2.769-5.922a10.315,10.315,0,0,0-6.564-5.665l-7.552-2.351a9.8,9.8,0,0,0-8.589,1.906L6.432,16.261A3.668,3.668,0,0,0,5.8,21.25a3.3,3.3,0,0,0,4.766.658l4.217-3.382a3.2,3.2,0,0,1,2.685-.683l1.562.486-3.98,9.719a7.448,7.448,0,0,0,.638,6.814,6.829,6.829,0,0,0,2.156,2.117l9.029,5.58-2.919,9.757a3.592,3.592,0,0,0,2.228,4.459,3.257,3.257,0,0,0,1.018.165,3.423,3.423,0,0,0,3.243-2.5L33.808,43.2a5.474,5.474,0,0,0-2.3-6.049L25,33.136l3.327-8.706,2.154,4.608a5.115,5.115,0,0,0,4.58,2.991H40.8a3.562,3.562,0,0,0,0-7.117Z" transform="translate(10.34 6)" fill="#fff"/></g><path d="M63.441,16.965h-7.6l-2.111-4.63C51.563,7.575,46.385,4.5,40.54,4.5H24.425C18.581,4.5,13.4,7.575,11.23,12.335l-2.111,4.63h-7.6A1.386,1.386,0,0,0,.047,18.624L.808,21.3a1.5,1.5,0,0,0,1.477,1.012H4.832a6.752,6.752,0,0,0-2.8,5.342v5.342a6.6,6.6,0,0,0,2.03,4.667v6.018a3.836,3.836,0,0,0,4.06,3.561h4.06a3.836,3.836,0,0,0,4.06-3.561V40.114H48.724v3.561a3.836,3.836,0,0,0,4.06,3.561h4.06a3.836,3.836,0,0,0,4.06-3.561V37.658a6.6,6.6,0,0,0,2.03-4.667V27.649a6.754,6.754,0,0,0-2.8-5.342h2.547A1.5,1.5,0,0,0,64.158,21.3l.761-2.671a1.387,1.387,0,0,0-1.478-1.659ZM18.77,14.981a6.141,6.141,0,0,1,5.655-3.358H40.54a6.141,6.141,0,0,1,5.655,3.358l2.529,5.546H16.241l2.529-5.546ZM12.181,32.969c-2.436,0-4.06-1.42-4.06-3.55s1.624-3.55,4.06-3.55,6.09,3.2,6.09,5.325S14.617,32.969,12.181,32.969Zm40.6,0c-2.436,0-6.09.355-6.09-1.775s3.654-5.325,6.09-5.325,4.06,1.42,4.06,3.55-1.624,3.55-4.06,3.55Z" transform="translate(0 7.743)" fill="#fff" opacity="0.22"/></g></g></g></svg>