<svg xmlns="http://www.w3.org/2000/svg" width="63.96" height="78.716" viewBox="0 0 63.96 78.716">
  <defs>
    <style>
      .cls-1 {
        fill: #3f6891;
      }
    </style>
  </defs>
  <path id="Icon_awesome-running" data-name="Icon awesome-running" class="cls-1" d="M41.82,14.76a7.38,7.38,0,1,0-7.38-7.38A7.38,7.38,0,0,0,41.82,14.76ZM17.48,48.811,15.2,54.118H4.92a4.92,4.92,0,1,0,0,9.84H16.828a7.364,7.364,0,0,0,6.782-4.473l1.351-3.155-1.641-.969a14.641,14.641,0,0,1-5.841-6.551ZM59.04,34.438H52.27l-4.007-8.187a14.753,14.753,0,0,0-9.5-7.832l-10.928-3.25A14.7,14.7,0,0,0,15.407,17.8l-6.1,4.676a4.919,4.919,0,0,0,5.987,7.807l6.1-4.676a4.788,4.788,0,0,1,3.885-.944l2.26.672L21.783,38.775a9.866,9.866,0,0,0,4.044,12.348l13.066,7.714L34.669,72.325a4.919,4.919,0,1,0,9.389,2.94l4.865-15.538A7.411,7.411,0,0,0,45.6,51.364L36.18,45.808l4.814-12.035,3.116,6.37a7.426,7.426,0,0,0,6.628,4.134h8.3a4.919,4.919,0,1,0,0-9.838Z"/>
</svg>
