<svg xmlns="http://www.w3.org/2000/svg" width="75.789" height="56.842" viewBox="0 0 75.789 56.842">
  <defs>
    <style>
      .cls-1 {
        fill: #d12f2f;
      }
    </style>
  </defs>
  <path id="Icon_awesome-car" data-name="Icon awesome-car" class="cls-1" d="M74.011,21.079H65.148l-2.463-6.158A16.5,16.5,0,0,0,47.294,4.5h-18.8A16.5,16.5,0,0,0,13.1,14.921l-2.463,6.158H1.777A1.776,1.776,0,0,0,.054,23.286l.888,3.553a1.775,1.775,0,0,0,1.723,1.346H5.637a9.407,9.407,0,0,0-3.268,7.105v7.105A9.4,9.4,0,0,0,4.737,48.6v8a4.737,4.737,0,0,0,4.737,4.737H14.21A4.737,4.737,0,0,0,18.947,56.6V51.868H56.841V56.6a4.737,4.737,0,0,0,4.737,4.737h4.737A4.737,4.737,0,0,0,71.052,56.6v-8a9.391,9.391,0,0,0,2.368-6.207V35.289a9.411,9.411,0,0,0-3.267-7.105h2.971a1.775,1.775,0,0,0,1.723-1.346l.888-3.553a1.777,1.777,0,0,0-1.724-2.207ZM21.9,18.439a7.106,7.106,0,0,1,6.6-4.466h18.8a7.106,7.106,0,0,1,6.6,4.466l2.95,7.376H18.947l2.95-7.376ZM14.21,42.365a4.468,4.468,0,0,1-4.737-4.722,4.468,4.468,0,0,1,4.737-4.722c2.842,0,7.105,4.25,7.105,7.083S17.052,42.365,14.21,42.365Zm47.368,0c-2.842,0-7.105.472-7.105-2.361s4.263-7.083,7.105-7.083a4.468,4.468,0,0,1,4.737,4.722,4.468,4.468,0,0,1-4.737,4.722Z" transform="translate(0 -4.5)"/>
</svg>
