<svg xmlns="http://www.w3.org/2000/svg" xmlns:xlink="http://www.w3.org/1999/xlink" width="330.965" height="307.941" viewBox="0 0 330.965 307.941"><defs><filter id="a" x="43.66" y="0" width="243.169" height="307.941" filterUnits="userSpaceOnUse"><feOffset dy="3" input="SourceAlpha"/><feGaussianBlur stdDeviation="3" result="b"/><feFlood flood-color="#989898" flood-opacity="0"/><feComposite operator="in" in2="b"/><feComposite in="SourceGraphic"/></filter></defs><g transform="translate(0 6)"><g transform="matrix(1, 0, 0, 1, 0, -6)" filter="url(#a)"><path d="M147.226,54.366c14.349,0,25.981-12.17,25.981-27.183S161.575,0,147.226,0s-25.981,12.17-25.981,27.183S132.877,54.366,147.226,54.366ZM61.537,179.787l-8.011,19.549H17.321C7.756,199.336,0,207.452,0,217.458S7.756,235.58,17.321,235.58H59.242a25.925,25.925,0,0,0,23.876-16.474l4.758-11.621L82.1,203.918A53.2,53.2,0,0,1,61.537,179.787Zm146.311-52.939H184.016L169.911,96.692c-6.766-14.469-19.188-25.048-33.44-28.848L98,55.872a49.966,49.966,0,0,0-43.756,9.707L32.769,82.8a18.67,18.67,0,0,0-3.2,25.4,16.818,16.818,0,0,0,24.281,3.353L75.329,94.336c4.152-3.336,9.44-4.531,13.678-3.477l7.957,2.475-20.276,49.49a37.909,37.909,0,0,0,3.251,34.7A34.782,34.782,0,0,0,90.923,188.3l46,28.412L122.051,266.4c-2.858,9.548,2.225,19.713,11.35,22.7a16.6,16.6,0,0,0,5.185.838,17.436,17.436,0,0,0,16.52-12.714L172.233,220a27.868,27.868,0,0,0-11.713-30.8l-33.148-20.467L144.319,124.4l10.972,23.462a26.059,26.059,0,0,0,23.334,15.228h29.223c9.564,0,17.321-8.115,17.321-18.122s-7.756-18.116-17.321-18.116Z" transform="translate(52.66 6)" fill="#fff"/></g><path d="M323.2,67.971H284.5L273.743,44.4C262.689,20.158,236.309,4.5,206.528,4.5H124.433c-29.774,0-56.161,15.658-67.221,39.9L46.456,67.971H7.761c-5.049,0-8.752,4.16-7.524,8.45l3.879,13.6a7.633,7.633,0,0,0,7.524,5.151H24.613c-8.681,6.647-14.273,16.31-14.273,27.2v27.2c0,9.135,3.982,17.381,10.343,23.762v30.642c0,10.014,9.263,18.135,20.685,18.135H62.054c11.422,0,20.685-8.121,20.685-18.135V185.846H248.222v18.135c0,10.014,9.263,18.135,20.685,18.135h20.685c11.422,0,20.685-8.121,20.685-18.135V173.339c6.361-6.375,10.343-14.621,10.343-23.762v-27.2c0-10.892-5.592-20.554-14.266-27.2h12.974a7.633,7.633,0,0,0,7.524-5.151l3.879-13.6c1.222-4.29-2.482-8.45-7.531-8.45ZM95.622,57.867c4.712-10.325,16.122-17.1,28.811-17.1h82.095c12.689,0,24.1,6.772,28.811,17.1l12.883,28.239H82.739L95.622,57.867Zm-33.568,91.6c-12.411,0-20.685-7.231-20.685-18.078s8.274-18.078,20.685-18.078,31.028,16.27,31.028,27.117S74.465,149.463,62.054,149.463Zm206.853,0c-12.411,0-31.028,1.808-31.028-9.039s18.617-27.117,31.028-27.117,20.685,7.231,20.685,18.078-8.274,18.078-20.685,18.078Z" transform="translate(0 57.84)" fill="#fff" opacity="0.22"/></g></svg>